<svg preserveAspectRatio="none" width="100%" height="100%" overflow="visible" style="display: block;" viewBox="0 0 100 124.834" fill="none" xmlns="http://www.w3.org/2000/svg">
<g id="Group 216">
<rect id="Rectangle 11017" y="9.53674e-07" width="100" height="124.834" rx="10" fill="var(--fill-0, black)" fill-opacity="0.3"/>
<g id="Vector">
<path fill-rule="evenodd" clip-rule="evenodd" d="M89.5002 16.834H84V10.6718L84.3236 10.0231H85.294V5.80703L86.2649 4.83398L89.1766 4.83398H89.8234H92.7351L93.706 5.80703V10.0231H94.6764L95 10.6718V16.834H89.5002ZM88.853 13.9149V15.8609H89.5002H90.147V13.9149C90.147 13.9149 91.1834 13.0524 91.0717 12.2491C90.9266 11.205 89.5002 10.9962 89.5002 10.9962C89.5002 10.9962 88.0734 11.205 87.9283 12.2491C87.8166 13.0524 88.853 13.9149 88.853 13.9149ZM91.7647 6.77963H89.8234H89.1766L87.2353 6.77963V10.0231H89.5002H91.7647V6.77963Z" fill="var(--fill-0, white)"/>
<path d="M89.4258 11.4902L89.4268 11.4912L89.4277 11.4902H89.4258ZM89.5723 11.4902L89.5732 11.4912L89.5723 11.4902ZM87.7354 9.52344H91.2646V7.2793L87.7354 7.2793V9.52344ZM89.3525 15.3613H89.6475V13.6807L89.8271 13.5303C89.8281 13.5295 89.8298 13.5283 89.832 13.5264C89.8374 13.5218 89.8468 13.5143 89.8584 13.5039C89.8816 13.4832 89.9154 13.4509 89.957 13.4102C90.0411 13.3278 90.151 13.2122 90.2559 13.0771C90.4887 12.777 90.6019 12.5046 90.5762 12.3184C90.5376 12.0405 90.3276 11.8343 90.0127 11.6807C89.8628 11.6076 89.7123 11.5586 89.5977 11.5283C89.56 11.5184 89.5268 11.5117 89.5 11.5059C89.4732 11.5117 89.44 11.5184 89.4023 11.5283C89.2877 11.5586 89.1372 11.6076 88.9873 11.6807C88.6723 11.8343 88.4624 12.0406 88.4238 12.3184C88.3981 12.5046 88.5113 12.777 88.7441 13.0771C88.849 13.2122 88.9589 13.3278 89.043 13.4102C89.0846 13.4509 89.1184 13.4832 89.1416 13.5039C89.1532 13.5143 89.1626 13.5218 89.168 13.5264C89.1702 13.5283 89.1719 13.5295 89.1729 13.5303L89.3525 13.6807V15.3613ZM94.2061 9.52344L94.9854 9.52344L95.124 9.7998L95.4473 10.4482L95.5 10.5537V17.334H83.5V10.5537L83.5527 10.4482L83.876 9.7998L84.0146 9.52344H84.7939V5.60059L84.9404 5.4541L85.9111 4.48047L86.0576 4.33398L92.9424 4.33398L93.0889 4.48047L94.0596 5.4541L94.2061 5.60059V9.52344Z" stroke="var(--stroke-0, black)" stroke-opacity="0.5"/>
</g>
</g>
</svg>
