<svg preserveAspectRatio="none" width="100%" height="100%" overflow="visible" style="display: block;" viewBox="0 0 29 22" fill="none" xmlns="http://www.w3.org/2000/svg">
<path id="Symbol_Check" d="M25.5078 0.5C27.1938 0.500059 28.5 1.74861 28.5 3.44922C28.5 3.70437 28.4319 3.9891 28.3447 4.25391C28.2548 4.5269 28.132 4.81555 27.9971 5.08984C27.7347 5.62295 27.3924 6.16966 27.1006 6.45996L13.3799 20.1143C13.176 20.3171 12.8579 20.6681 12.5254 20.9404C12.1926 21.2129 11.7406 21.4999 11.208 21.5C10.6752 21.5 10.2225 21.213 9.88965 20.9404C9.55715 20.6681 9.23901 20.3171 9.03516 20.1143L1.31738 12.4336C1.00026 12.118 0.801737 11.6785 0.680664 11.2598C0.557321 10.8331 0.5 10.377 0.5 9.97949C0.500026 9.13751 0.822751 8.42999 1.38184 7.93848C1.93405 7.453 2.68142 7.20898 3.49023 7.20898C4.33745 7.2091 5.10577 7.55107 5.66113 8.10449L11.207 13.623L22.7568 2.13086L22.9785 1.91992C23.2321 1.6889 23.5726 1.40644 23.9326 1.15723C24.1727 0.991032 24.4323 0.831847 24.6885 0.712891C24.9361 0.597938 25.2236 0.5 25.5078 0.5Z" fill="var(--fill-0, #5FBE1A)" stroke="var(--stroke-0, black)"/>
</svg>
