<svg preserveAspectRatio="none" width="100%" height="100%" overflow="visible" style="display: block;" viewBox="0 0 24 24" fill="none" xmlns="http://www.w3.org/2000/svg">
<g id="svg-icon-info-card-black">
<path id="Vector" d="M17.5 5H6.5C5.11929 5 4 6.11929 4 7.5V16.5C4 17.8807 5.11929 19 6.5 19H17.5C18.8807 19 20 17.8807 20 16.5V7.5C20 6.11929 18.8807 5 17.5 5Z" stroke="var(--stroke-0, #111318)" stroke-width="1.6"/>
<path id="Vector_2" d="M8 10H16" stroke="var(--stroke-0, #111318)" stroke-width="1.6" stroke-linecap="round"/>
<path id="Vector_3" d="M8 14H13.5" stroke="var(--stroke-0, #111318)" stroke-width="1.6" stroke-linecap="round"/>
<path id="Vector_4" d="M16.5 15.2C17.1627 15.2 17.7 14.6627 17.7 14C17.7 13.3373 17.1627 12.8 16.5 12.8C15.8373 12.8 15.3 13.3373 15.3 14C15.3 14.6627 15.8373 15.2 16.5 15.2Z" fill="var(--fill-0, #111318)"/>
</g>
</svg>
