<svg preserveAspectRatio="none" width="100%" height="100%" overflow="visible" style="display: block;" viewBox="0 0 24 24" fill="none" xmlns="http://www.w3.org/2000/svg">
<g id="svg-icon-map-route">
<path id="Vector" d="M4 6.5L9.2 4.8L14.8 6.5L20 4.8V17.5L14.8 19.2L9.2 17.5L4 19.2V6.5Z" stroke="var(--stroke-0, #617DFA)" stroke-opacity="0.6" stroke-width="1.4" stroke-linejoin="round"/>
<path id="Vector_2" d="M9.2 4.8V17.5" stroke="var(--stroke-0, #617DFA)" stroke-opacity="0.6" stroke-width="1.2"/>
<path id="Vector_3" d="M14.8 6.5V19.2" stroke="var(--stroke-0, #617DFA)" stroke-opacity="0.6" stroke-width="1.2"/>
<path id="Vector_4" d="M6.6 14.5C8.5 11.5 11.4 14.3 12.5 10.8C13.4 8 16.1 8.7 17.6 7.2" stroke="var(--stroke-0, #617DFA)" stroke-width="1.5" stroke-linecap="round" stroke-dasharray="1 2"/>
<path id="Vector_5" d="M17.8002 5.8C18.4628 5.80011 19.0004 6.33752 19.0004 7.0002C19.0003 7.66278 18.4628 8.20028 17.8002 8.20039C17.1375 8.20039 16.6001 7.66285 16.6 7.0002C16.6 6.33745 17.1375 5.8 17.8002 5.8Z" fill="var(--fill-0, #617DFA)" stroke="var(--stroke-0, #617DFA)"/>
<path id="Vector_6" d="M6.4 13.8C6.95228 13.8 7.4 14.2477 7.4 14.8C7.4 15.3523 6.95229 15.8 6.4 15.8C5.84771 15.8 5.4 15.3523 5.4 14.8C5.4 14.2477 5.84772 13.8 6.4 13.8Z" fill="var(--fill-0, #617DFA)" stroke="var(--stroke-0, #617DFA)"/>
</g>
</svg>
